# xmcd
#
# Track frame offsets: 
#        183
#        13010
#        26625
#
# Disc length: 535 seconds
#
# Revision: 1
# Processed by: cddbd v1.5.2PL0 Copyright (c) Steve Scherf et al.
# Submitted via: ExactAudioCopyFreeDBPlugin 1.0
#
DISCID=1a021503
DTITLE=Pavement / Trigger Cut Plus 2
DYEAR=
DGENRE=Rock
TTITLE0=Trigger Cut
TTITLE1=Sue me Jack
TTITLE2=So stark (You're a skyscraper)
EXTD=
EXTT0=
EXTT1=
EXTT2=
PLAYORDER=
